<?xml version="1.0" ?>
<!DOCTYPE svg  PUBLIC '-//W3C//DTD SVG 1.1//EN'  'http://www.w3.org/Graphics/SVG/1.1/DTD/svg11.dtd'>
<!-- Uploaded to: SVG Repo, www.svgrepo.com, Generator: SVG Repo Mixer Tools -->
<svg fill="#000000" width="800px" height="800px" viewBox="0 -0.5 32 32" style="fill-rule:evenodd;clip-rule:evenodd;stroke-linejoin:round;stroke-miterlimit:2;" version="1.1" xml:space="preserve" xmlns="http://www.w3.org/2000/svg" xmlns:serif="http://www.serif.com/" xmlns:xlink="http://www.w3.org/1999/xlink">
<g transform="matrix(1,0,0,1,-432,-192)">
<g transform="matrix(0.923077,0,0,0.842105,432.231,151.684)">
<path d="M29,57.375C29,56.745 28.772,56.141 28.365,55.696C27.959,55.25 27.408,55 26.833,55C21.937,55 10.063,55 5.167,55C4.592,55 4.041,55.25 3.635,55.696C3.228,56.141 3,56.745 3,57.375C3,61.025 3,67.975 3,71.625C3,72.255 3.228,72.859 3.635,73.304C4.041,73.75 4.592,74 5.167,74C10.063,74 21.937,74 26.833,74C27.408,74 27.959,73.75 28.365,73.304C28.772,72.859 29,72.255 29,71.625C29,67.975 29,61.025 29,57.375Z" style="fill:rgb(144,224,239);"/>
</g>
<g transform="matrix(1.11111,0,0,1.11111,0.777778,-24.2222)">
<circle cx="411.5" cy="213.5" r="4.5" style="fill:rgb(144,224,239);"/>
</g>
<path d="M456,197L436,197C435.204,197 434.441,197.316 433.879,197.879C433.316,198.441 433,199.204 433,200L433,212C433,212.796 433.316,213.559 433.879,214.121C434.441,214.684 435.204,215 436,215L451.342,215C452.166,217.329 454.39,219 457,219C460.311,219 463,216.311 463,213C463,210.39 461.329,208.166 459,207.342L459,200C459,199.204 458.684,198.441 458.121,197.879C457.559,197.316 456.796,197 456,197ZM457,209C459.208,209 461,210.792 461,213C461,215.208 459.208,217 457,217C454.792,217 453,215.208 453,213C453,210.792 454.792,209 457,209ZM454.543,214.207L455.546,215.21C455.733,215.397 455.988,215.503 456.253,215.503C456.519,215.503 456.773,215.397 456.961,215.209L459.458,212.706C459.848,212.316 459.847,211.682 459.456,211.292C459.066,210.902 458.432,210.903 458.042,211.294L456.252,213.088C456.252,213.088 455.957,212.793 455.957,212.793C455.567,212.403 454.933,212.403 454.543,212.793C454.153,213.183 454.153,213.817 454.543,214.207ZM457,203L456,203C454.344,203 453,201.656 453,200L453,199L439,199L439,200C439,201.656 437.656,203 436,203L435,203L435,209L436,209C437.656,209 439,210.344 439,212L439,213L451,213C451,209.689 453.689,207 457,207L457,203ZM435,211L435,212C435,212.265 435.105,212.52 435.293,212.707C435.48,212.895 435.735,213 436,213L437,213L437,212C437,211.448 436.552,211 436,211L435,211ZM446,201C443.24,201 441,203.24 441,206C441,208.76 443.24,211 446,211C448.76,211 451,208.76 451,206C451,203.24 448.76,201 446,201ZM446,203C447.656,203 449,204.344 449,206C449,207.656 447.656,209 446,209C444.344,209 443,207.656 443,206C443,204.344 444.344,203 446,203ZM455,199L455,200C455,200.552 455.448,201 456,201L457,201L457,200C457,199.735 456.895,199.48 456.707,199.293C456.52,199.105 456.265,199 456,199L455,199ZM437,199L436,199C435.735,199 435.48,199.105 435.293,199.293C435.105,199.48 435,199.735 435,200L435,201L436,201C436.552,201 437,200.552 437,200L437,199Z" style="fill:rgb(25,144,167);"/>
</g>
</svg>