<?xml version="1.0" encoding="utf-8"?>
<!-- Uploaded to: SVG Repo, www.svgrepo.com, Generator: SVG Repo Mixer Tools -->
<svg width="800px" height="800px" viewBox="0 0 1024 1024" class="icon"  version="1.1" xmlns="http://www.w3.org/2000/svg"><path d="M106.666667 810.666667V298.666667h810.666666v512c0 46.933333-38.4 85.333333-85.333333 85.333333H192c-46.933333 0-85.333333-38.4-85.333333-85.333333z" fill="#FFCDD2" /><path d="M917.333333 213.333333v128H106.666667v-128c0-46.933333 38.4-85.333333 85.333333-85.333333h640c46.933333 0 85.333333 38.4 85.333333 85.333333z" fill="#F44336" /><path d="M704 213.333333m-64 0a64 64 0 1 0 128 0 64 64 0 1 0-128 0Z" fill="#B71C1C" /><path d="M320 213.333333m-64 0a64 64 0 1 0 128 0 64 64 0 1 0-128 0Z" fill="#B71C1C" /><path d="M704 64c-23.466667 0-42.666667 19.2-42.666667 42.666667v106.666666c0 23.466667 19.2 42.666667 42.666667 42.666667s42.666667-19.2 42.666667-42.666667V106.666667c0-23.466667-19.2-42.666667-42.666667-42.666667zM320 64c-23.466667 0-42.666667 19.2-42.666667 42.666667v106.666666c0 23.466667 19.2 42.666667 42.666667 42.666667s42.666667-19.2 42.666667-42.666667V106.666667c0-23.466667-19.2-42.666667-42.666667-42.666667z" fill="#BDBDBD" /><path d="M473.6 753.066667c0-4.266667 0-10.666667 2.133333-14.933334 2.133333-4.266667 4.266667-8.533333 8.533334-10.666666s6.4-6.4 10.666666-6.4c4.266667-2.133333 10.666667-2.133333 14.933334-2.133334s10.666667 0 14.933333 2.133334l12.8 6.4c4.266667 2.133333 6.4 6.4 8.533333 10.666666 2.133333 4.266667 2.133333 8.533333 2.133334 14.933334 0 4.266667 0 10.666667-2.133334 14.933333-2.133333 4.266667-4.266667 8.533333-8.533333 10.666667-4.266667 2.133333-6.4 6.4-12.8 6.4s-6.4 4.266667-12.8 4.266666-10.666667 0-14.933333-2.133333c-4.266667-2.133333-8.533333-4.266667-10.666667-6.4-4.266667-2.133333-6.4-6.4-8.533333-10.666667-2.133333-6.4-4.266667-10.666667-4.266667-17.066666z m66.133333-91.733334h-55.466666l-8.533334-234.666666h70.4l-6.4 234.666666z" fill="#F44336" /></svg>